<?xml version="1.0" encoding="UTF-8" standalone="no"?>
<svg
   xmlns:dc="http://purl.org/dc/elements/1.1/"
   xmlns:cc="http://creativecommons.org/ns#"
   xmlns:rdf="http://www.w3.org/1999/02/22-rdf-syntax-ns#"
   xmlns:svg="http://www.w3.org/2000/svg"
   xmlns="http://www.w3.org/2000/svg"
   xmlns:sodipodi="http://sodipodi.sourceforge.net/DTD/sodipodi-0.dtd"
   xmlns:inkscape="http://www.inkscape.org/namespaces/inkscape"
   version="1.1"
   id="svg2"
   xml:space="preserve"
   width="2666.6667"
   height="800"
   viewBox="0 0 2666.6667 800"
   sodipodi:docname="vector ai file.ai"><metadata
     id="metadata8"><rdf:RDF><cc:Work
         rdf:about=""><dc:format>image/svg+xml</dc:format><dc:type
           rdf:resource="http://purl.org/dc/dcmitype/StillImage" /></cc:Work></rdf:RDF></metadata><defs
     id="defs6"><clipPath
       clipPathUnits="userSpaceOnUse"
       id="clipPath18"><path
         d="M 0,600 H 2000 V 0 H 0 Z"
         id="path16" /></clipPath></defs><sodipodi:namedview
     pagecolor="#ffffff"
     bordercolor="#666666"
     borderopacity="1"
     objecttolerance="10"
     gridtolerance="10"
     guidetolerance="10"
     inkscape:pageopacity="0"
     inkscape:pageshadow="2"
     inkscape:window-width="640"
     inkscape:window-height="480"
     id="namedview4" /><g
     id="g10"
     inkscape:groupmode="layer"
     inkscape:label="vector ai file"
     transform="matrix(1.3333333,0,0,-1.3333333,0,800)"><g
       id="g12"><g
         id="g14"
         clip-path="url(#clipPath18)"><g
           id="g20"
           transform="translate(808.329,301.1439)"><path
             d="m 0,0 -99.749,56.399 c -0.224,0.099 -22.608,10.354 -22.608,35.01 0,37.074 10.512,58.538 64.221,58.538 51.375,0 62.662,-19.001 64.237,-49.883 0.809,-7.287 6.505,-12.568 13.543,-12.568 h 18.168 c 3.88,0 7.545,1.6 10.048,4.402 2.255,2.52 3.296,5.729 2.952,8.755 -1.157,28.891 -9.704,50.911 -26.128,67.334 -17.965,17.965 -45.053,26.695 -82.82,26.695 -37.386,0 -64.292,-8.73 -82.257,-26.695 -17.96,-17.966 -26.69,-43.019 -26.69,-76.578 0,-52.511 45.186,-74.19 46.84,-74.945 l 97.582,-55.031 C 6.433,-55.811 11.76,-67.981 11.76,-85.731 c 0,-30.699 -8.469,-59.11 -69.896,-59.11 -57.481,0 -67.305,25.452 -69.349,50.455 -0.812,7.288 -6.508,12.569 -13.546,12.569 h -18.168 c -3.876,0 -7.54,-1.601 -10.044,-4.403 -2.255,-2.52 -3.295,-5.728 -2.947,-8.82 1.753,-30.393 12.742,-54.07 32.656,-70.369 19.59,-16.034 46.977,-24.158 81.398,-24.158 35.284,0 62.095,7.901 81.95,24.141 21.684,17.584 32.676,44.403 32.676,79.695 0,20.088 -5.074,36.627 -15.519,50.572 C 32.084,-22.724 19.092,-11.573 0,0"
             style="fill:#1a171b;fill-opacity:1;fill-rule:nonzero;stroke:none"
             id="path22" /></g><g
           id="g24"
           transform="translate(1039.1565,399.8728)"><path
             d="m 0,0 h -60.81 v 60.81 c 0,7.287 -5.707,12.999 -12.999,12.999 h -18.735 c -7.288,0 -12.996,-5.712 -12.996,-12.999 V 0 h -32.991 c -7.287,0 -12.995,-5.712 -12.995,-12.999 v -18.164 c 0,-7.486 5.828,-13.571 12.995,-13.571 h 32.991 v -147.104 c 0,-23.271 8.606,-46.948 23.603,-64.946 16.738,-20.32 39.184,-31.512 63.201,-31.512 H 0 c 7.167,0 13,6.085 13,13.563 v 18.164 c 0,7.288 -5.709,12.999 -13,12.999 h -18.736 c -15.233,0 -25.505,11.417 -28.801,15.072 -8.43,10.015 -13.273,23.379 -13.273,36.66 V -44.734 H 0 c 7.167,0 13,6.085 13,13.571 v 18.164 C 13,-5.712 7.291,0 0,0"
             style="fill:#1a171b;fill-opacity:1;fill-rule:nonzero;stroke:none"
             id="path26" /></g><g
           id="g28"
           transform="translate(1233.946,253.2422)"><path
             d="m 0,0 v -27.044 c 0,-29.107 -10.35,-48.215 -32.469,-60.088 -18.251,-9.119 -37.352,-9.799 -37.427,-9.807 h -9.082 c -17.882,0 -32.991,15.113 -32.991,32.996 v 5.67 c 0,15.851 4.659,27.018 27.852,33.717 L -1.674,-0.273 C -1.11,-0.233 -0.551,-0.132 0,0 m 21.273,129.18 c -16.448,14.616 -39.461,21.422 -72.432,21.422 -33.356,0 -56.552,-6.806 -73.108,-21.521 -14.182,-13.564 -21.63,-31.885 -22.762,-55.77 -0.385,-3.457 0.656,-6.764 2.922,-9.302 2.347,-2.62 5.804,-4.12 9.489,-4.12 h 18.736 c 7.039,0 12.73,5.281 13.554,12.734 1.506,22.525 9.543,33.253 51.169,33.253 C -5.049,105.876 0,92.404 0,63.802 v -7.386 c 0,-7.155 -5.857,-10.753 -11.581,-13.331 -0.519,-0.233 -0.958,-0.44 -1.31,-0.622 L -96.562,18.727 c -39.905,-11.921 -60.138,-37.819 -60.138,-77 v -5.67 c 0,-42.862 34.866,-77.722 77.722,-77.722 h 9.082 c 0.279,0 28.358,0.381 56.379,14.093 4.195,2.289 8.871,4.958 13.517,8.133 v -5.256 c 0,-7.287 5.708,-12.999 13,-12.999 h 18.735 c 7.288,0 12.996,5.712 12.996,12.999 V 63.802 c 0,29.787 -7.432,50.546 -23.396,65.328 z"
             style="fill:#1a171b;fill-opacity:1;fill-rule:nonzero;stroke:none"
             id="path30" /></g><g
           id="g32"
           transform="translate(1464.3804,399.8728)"><path
             d="m 0,0 h -60.81 v 60.81 c 0,7.287 -5.708,12.999 -12.999,12.999 h -18.732 c -7.291,0 -12.999,-5.712 -12.999,-12.999 V 0 h -32.992 c -7.287,0 -12.994,-5.712 -12.994,-12.999 v -18.164 c 0,-7.486 5.828,-13.571 12.994,-13.571 h 32.992 v -147.104 c 0,-23.271 8.605,-46.948 23.602,-64.946 16.739,-20.32 39.185,-31.512 63.202,-31.512 H 0 c 7.167,0 12.999,6.085 12.999,13.563 v 18.164 c 0,7.288 -5.707,12.999 -12.999,12.999 h -18.736 c -15.234,0 -25.505,11.417 -28.801,15.072 -8.431,10.015 -13.273,23.379 -13.273,36.66 V -44.734 H 0 c 7.167,0 12.999,6.085 12.999,13.571 v 18.164 C 12.999,-5.712 7.292,0 0,0"
             style="fill:#1a171b;fill-opacity:1;fill-rule:nonzero;stroke:none"
             id="path34" /></g><g
           id="g36"
           transform="translate(1703.3949,399.8728)"><path
             d="m 0,0 h -18.737 c -7.287,0 -12.998,-5.712 -12.998,-12.999 v -191.332 c 0,-4.129 -2.479,-10.513 -5,-13.032 -17.824,-16.598 -32.299,-26.207 -53.538,-26.207 h -5.066 c -0.132,0.009 -13.588,0.465 -25.882,7.412 -15.338,8.995 -22.484,23.611 -22.484,46.02 V -12.999 C -143.705,-5.712 -149.412,0 -156.7,0 h -18.736 c -7.291,0 -12.999,-5.712 -12.999,-12.999 v -177.139 c 0,-50.43 25.525,-74.489 46.94,-85.789 h 0.004 c 23.229,-12.228 45.19,-12.369 46.11,-12.369 h 5.108 c 21.289,0 40.514,5.861 58.538,17.891 v -1.493 c 0,-6.856 5.827,-12.426 12.998,-12.426 H 0 c 7.287,0 12.999,5.711 12.999,12.998 V -12.999 C 12.999,-5.712 7.287,0 0,0"
             style="fill:#1a171b;fill-opacity:1;fill-rule:nonzero;stroke:none"
             id="path38" /></g><g
           id="g40"
           transform="translate(1909.1942,267.3192)"><path
             d="m 0,0 -1.426,-3.648 1.367,3.673 c -11.116,4.435 -25.658,9.89 -41.011,15.37 -8.731,2.91 -18.355,6.425 -26.032,9.219 -8.838,3.216 -13.157,4.784 -13.978,4.858 -10.106,4.336 -15.229,11.15 -15.229,20.253 0,31.454 11.623,42.074 46.052,42.074 h 1.7 c 31.106,0 43.433,-9.037 45.514,-33.427 0.804,-7.279 6.491,-12.559 13.538,-12.559 h 18.164 c 3.888,0 7.553,1.607 10.056,4.41 2.255,2.512 3.292,5.72 2.935,8.829 -2.238,35.341 -19.714,77.473 -90.207,77.473 h -1.7 c -75.027,0 -90.778,-47.205 -90.778,-86.8 0,-27.681 16.199,-50.695 43.333,-61.547 1.575,-0.63 6.79,-2.479 15.163,-5.438 6.79,-2.396 15.686,-5.539 26.347,-9.344 7.826,-2.976 16.672,-6.201 24.058,-8.887 7.022,-2.561 14.276,-5.207 15.586,-5.844 17.161,-7.064 19.151,-18.812 19.151,-27.035 0,-15.147 -4.095,-26.165 -12.054,-32.639 -8.73,-6.55 -22.251,-10.007 -39.106,-10.007 -16.854,0 -30.367,3.457 -38.915,9.857 -6.723,5.704 -10.744,13.455 -12.27,23.569 -0.82,7.487 -6.649,13.132 -13.538,13.132 h -18.163 c -3.707,0 -7.287,-1.624 -9.825,-4.46 -2.387,-2.669 -3.531,-6.143 -3.166,-9.409 2.453,-31.246 17.318,-48.722 29.38,-57.9 17.012,-12.767 40.001,-19.515 66.497,-19.515 26.877,0 49.253,6.565 66.638,19.614 13.347,10.919 29.256,31.529 29.256,67.758 C 47.337,-36.726 30.085,-11.805 0,0"
             style="fill:#1a171b;fill-opacity:1;fill-rule:nonzero;stroke:none"
             id="path42" /></g><g
           id="g44"
           transform="translate(179.5419,423.445)"><path
             d="m 0,0 c -18.613,0 -33.841,-12.259 -33.841,-27.241 v -27.812 c 0,-14.982 15.228,-27.241 33.841,-27.241 h 341.242 c 18.609,0 33.84,-12.259 33.84,-27.241 V -301.94 c 0,-14.982 -15.231,-27.241 -33.84,-27.241 h -443.474 c -18.613,0 -33.841,12.259 -33.841,27.241 v 27.814 c 0,14.983 15.228,27.241 33.841,27.241 h 341.249 c 18.61,0 33.835,12.259 33.835,27.241 v 27.812 c 0,14.982 -15.225,27.241 -33.835,27.241 h -341.249 c -18.613,0 -33.841,12.26 -33.841,27.239 V 55.05 c 0,14.982 15.228,27.241 33.841,27.241 h 443.474 c 18.609,0 33.84,-12.259 33.84,-27.241 V 27.239 C 375.082,12.259 359.851,0 341.242,0 Z"
             style="fill:#1a171b;fill-opacity:1;fill-rule:nonzero;stroke:none"
             id="path46" /></g><g
           id="g48"
           transform="translate(508.6814,368.6432)"><path
             d="m 0,0 c 0,-1.478 -1.488,-2.678 -3.327,-2.678 h -320.458 c -1.834,0 -3.33,1.2 -3.33,2.678 v 25.162 c 0,1.478 1.496,2.679 3.33,2.679 H -3.327 C -1.488,27.841 0,26.64 0,25.162 Z"
             style="fill:#e21f26;fill-opacity:1;fill-rule:nonzero;stroke:none"
             id="path50" /></g><g
           id="g52"
           transform="translate(415.5198,206.158)"><path
             d="m 0,0 c 0,-1.477 -1.488,-2.678 -3.327,-2.678 h -320.456 c -1.839,0 -3.33,1.201 -3.33,2.678 v 25.162 c 0,1.478 1.491,2.679 3.33,2.679 H -3.327 C -1.488,27.841 0,26.64 0,25.162 Z"
             style="fill:#0881b0;fill-opacity:1;fill-rule:nonzero;stroke:none"
             id="path54" /></g></g></g></g></svg>
